<?xml version="1.0" encoding="utf-8"?>
<!-- Generator: Adobe Illustrator 16.0.0, SVG Export Plug-In . SVG Version: 6.00 Build 0)  -->
<!DOCTYPE svg PUBLIC "-//W3C//DTD SVG 1.1//EN" "http://www.w3.org/Graphics/SVG/1.1/DTD/svg11.dtd">
<svg version="1.1" id="Layer_1_1_" xmlns="http://www.w3.org/2000/svg" xmlns:xlink="http://www.w3.org/1999/xlink" x="0px" y="0px"
	 width="1024px" height="768px" viewBox="0 0 1024 768" enable-background="new 0 0 1024 768" xml:space="preserve">
<g>
	<g>
		<rect x="380" y="408" fill="#333333" width="264" height="24"/>
	</g>
	<g>
		<rect x="380" y="612" fill="#333333" width="264" height="24"/>
	</g>
	<g>
		<path fill="#333333" d="M620,756H404c-20.4,0-36-15.6-36-36V384c0-14.4,4.8-40.8,14.4-55.2l37.2-49.2c8.4-8.4,8.4-15.6,8.4-15.6
			v-1.2L450.8,96H440V12h144v84h-10.8L596,264c0,0,0,7.2,8.4,15.6l1.199,1.2l36,48C651.2,343.2,656,369.6,656,384v336
			C656,740.4,640.4,756,620,756z M437.6,296.4l-36,46.8c-4.8,7.2-9.6,28.8-9.6,40.8v336c0,7.2,4.8,12,12,12h216c7.2,0,12-4.8,12-12
			V384c0-12-4.8-33.6-9.6-40.8L587.6,296.4C574.4,283.2,573.2,270,573.2,265.2L546.8,72H560V36h-96v36h13.2L452,265.2
			C452,268.8,449.6,283.2,437.6,296.4z"/>
	</g>
	<g>
		<rect x="464" y="72" fill="#333333" width="96" height="24"/>
	</g>
	<g>
		<rect x="416" y="696" fill="#333333" width="96" height="24"/>
	</g>
	<g>
		<path fill="#333333" d="M449.6,343.2L429.2,330l25.2-38.4c0,0,8.399-9.6,8.399-27.6v-24h24v24c0,25.2-10.8,39.6-14.399,43.2
			L449.6,343.2z"/>
	</g>
	<g>
		<path fill="#333333" d="M428,396h-24c0-38.4,13.2-54,15.6-56.4L436.4,356.4L428,348l8.4,8.4C436.4,356.4,428,367.2,428,396z"/>
	</g>
	<g>
		<rect x="584" y="696" fill="#333333" width="24" height="24"/>
	</g>
	<g>
		<rect x="536" y="696" fill="#333333" width="24" height="24"/>
	</g>
</g>
<g>
	<polygon fill="#E44061" points="535.478,521.388 596.079,460.787 570.02,434.728 509.418,495.329 448.817,434.728 422.758,460.787 
		483.359,521.388 422.758,581.989 448.817,608.049 509.418,547.447 570.02,608.049 596.079,581.989 	"/>
</g>
</svg>
