<?xml version="1.0" encoding="utf-8"?>
<!-- Svg Vector Icons : http://www.onlinewebfonts.com/icon -->
<!DOCTYPE svg PUBLIC "-//W3C//DTD SVG 1.1//EN" "http://www.w3.org/Graphics/SVG/1.1/DTD/svg11.dtd">
<svg version="1.1" xmlns="http://www.w3.org/2000/svg" xmlns:xlink="http://www.w3.org/1999/xlink" x="0px" y="0px" viewBox="0 0 1000 1000" enable-background="new 0 0 1000 1000" xml:space="preserve">
<metadata> Svg Vector Icons : http://www.onlinewebfonts.com/icon </metadata>
<g><g transform="translate(0.000000,482.000000) scale(0.100000,-0.100000)"><path d="M9410.6,4704.4c-514-53-938.2-206-1174.8-422.2l-112.2-102l-49,89.7c-77.5,146.9-195.8,269.2-275.3,285.5c-220.3,40.8-693.5-277.4-930-626.2c-93.8-138.7-201.9-359-201.9-409.9s-12.2-46.9-120.3,34.7c-53,38.7-120.3,79.5-148.9,89.7c-232.5,87.7-673.1-420.1-801.5-925.9c-20.4-77.5-40.8-146.8-42.8-150.9c-4.1-4.1-36.7,14.3-73.4,40.8c-46.9,34.7-93.8,49-155,46.9c-236.6-6.1-599.6-471.1-722-923.9l-42.8-163.2l-59.2,42.8c-34.7,22.4-99.9,46.9-144.8,51c-73.4,8.1-99.9-2.1-197.8-69.3c-222.3-157.1-465-536.4-544.6-852.5c-20.4-77.5-36.7-144.8-38.7-148.9c-2-4.1-42.8,14.3-89.7,38.7c-120.3,63.2-191.7,55.1-324.3-36.7c-220.3-153-463-532.3-544.6-852.5c-20.4-77.5-38.8-146.9-42.8-150.9c-2-4.1-34.7,14.3-71.4,40.8c-108.1,79.6-216.2,65.3-359-44.9c-303.9-236.6-536.4-701.6-567-1140.1c-24.5-336.5,116.3-732.2,340.6-958.6c65.3-65.3,144.8-134.6,179.5-153c34.7-16.3,63.2-38.8,63.2-46.9c0-6.1-463-477.3-1030-1044.3l-1030-1032v-87.7c0-163.2,155-254.9,301.9-177.4c30.6,16.3,503.8,479.3,1054.5,1030c548.6,550.7,1005.5,1001.4,1013.7,1001.4c8.2,0,30.6-28.6,46.9-63.2c18.4-34.7,87.7-114.2,153-179.5c224.4-222.3,622.1-365.1,950.4-342.6c308,22.4,565,110.1,838.3,291.7c265.1,175.4,430.3,391.6,401.8,524.2c-6.1,36.7-30.6,89.7-51,120.3c-46.9,65.2-48.9,77.5-2,77.5c67.3,0,301.9,83.6,463,165.2c320.2,161.1,591.5,438.5,585.4,601.7c-2.1,38.8-22.4,104-46.9,142.8c-24.5,38.8-40.8,73.4-36.7,75.5c4.1,4.1,73.4,20.4,150.9,40.8c305.9,75.5,691.4,318.2,842.3,530.3c95.9,132.6,106.1,234.6,38.8,338.6l-53,79.6l134.6,32.6C7281.3-488.3,7681-217,7813.6,42c44.9,89.8,36.7,173.4-28.6,265.1c-22.4,32.6-38.8,59.2-34.7,63.2c4.1,2.1,73.4,22.5,150.9,42.8c389.6,99.9,813.8,397.7,915.8,646.5c38.8,91.8,20.4,167.2-77.5,299.8c-83.6,114.2-87.7,124.4-36.7,124.4s271.3,108.1,407.9,201.9c259,175.4,514,485.4,597.6,730.2c46.9,140.7,49,197.8,4.1,271.3c-30.6,55.1-293.7,244.7-336.5,244.7c-12.2,0,26.5,51,85.7,116.3c228.4,248.8,371.2,656.7,428.3,1213.5c28.6,295.7,0,399.7-126.5,442.6C9694.1,4728.9,9649.2,4728.9,9410.6,4704.4z M9457.5,4155.8c-91.8-685.3-344.7-1019.8-832.1-1103.4c-132.6-22.4-316.1-4.1-356.9,34.7c-49,49-59.2,244.7-22.4,414c81.6,381.4,348.8,613.9,840.3,728.1c148.9,32.6,356.9,65.3,377.3,57.1C9469.7,4282.2,9467.7,4223.1,9457.5,4155.8z M7723.8,4045.6c22.4-38.7,61.2-126.5,87.7-195.8c40.8-114.2,42.9-136.7,22.4-252.9c-14.3-71.4-24.5-216.2-24.5-320.2c0-171.3-6.1-206-63.2-324.3c-81.6-175.4-181.5-291.7-293.7-346.7c-136.7-65.3-189.7-51-281.5,81.6c-144.8,208-183.6,507.8-97.9,736.3c89.7,238.6,287.6,483.4,503.8,626.1c53,36.7,97.9,65.3,102,65.3C7681,4115,7701.4,4084.4,7723.8,4045.6z M6459.3,3087c71.4-65.3,208-275.3,208-318.2c0-12.3,34.7-93.8,75.5-179.5c63.2-132.6,75.5-179.5,75.5-289.6c0-73.4-14.3-179.5-34.7-238.6c-53-153-183.6-342.6-279.4-405.9l-81.6-55l-83.6,36.7c-181.5,81.6-320.2,305.9-365.1,591.5c-42.8,271.3,67.3,620,279.4,883.1C6332.9,3207.4,6326.8,3209.4,6459.3,3087z M9145.4,2579.2c179.5-85.7,177.5-75.5,14.3-285.5c-167.2-214.2-471.2-405.9-699.6-440.6c-212.1-34.7-442.6,24.5-624.1,159.1c-102,73.4-110.1,124.4-44.9,261.1c53,108.1,171.3,208,344.7,289.6c118.3,57.1,153,63.2,326.3,65.3c106.1,0,230.5,8.2,275.3,18.4C8868,2675,8980.2,2656.7,9145.4,2579.2z M5462,2091.7c81.6-81.6,138.7-169.3,228.4-352.8c114.2-232.5,120.3-250.9,120.3-399.8c0-195.8-53-375.3-155-524.2c-102-146.8-195.8-210.1-275.3-187.6c-153,44.9-316.1,252.9-375.3,479.3c-85.7,332.4,6.1,693.4,259,1015.7c32.6,40.8,67.3,75.5,75.5,75.5C5347.8,2197.8,5402.8,2148.8,5462,2091.7z M7776.9,1557.4c85.6-40.8,165.2-73.4,177.4-73.4c51,0,267.2-150.9,344.7-240.7l85.7-95.9l-79.6-67.3c-161.1-140.7-412-254.9-642.5-291.7c-326.3-53-732.2,124.4-840.3,367.1c-36.7,79.6-36.7,81.6,6.1,153c116.2,185.6,452.8,348.8,687.3,330.4C7579,1632.9,7683,1600.2,7776.9,1557.4z M4478.9,1092.4c126.4-130.5,326.3-526.2,344.7-681.2c26.5-224.3-83.6-532.3-246.8-691.4c-106.1-102-140.7-110.1-252.9-53c-148.9,77.5-257,242.7-320.2,491.5c-55.1,218.2-16.3,477.2,114.2,734.2c61.2,124.4,199.9,305.9,230.5,305.9C4362.7,1198.4,4421.8,1149.5,4478.9,1092.4z M6922.3,507c183.6-89.7,271.3-146.9,352.8-228.4c57.1-59.1,106.1-114.2,106.1-122.4c0-8.1-34.7-42.8-75.5-75.4c-322.2-252.9-683.3-344.7-1015.7-259C6063.7-119.1,5855.6,44,5810.8,197c-22.4,79.6,40.8,173.4,189.7,275.3c150.9,104,314.1,153,514,153C6673.5,627.4,6685.7,623.3,6922.3,507z M3555,27.7c26.5-34.7,97.9-159.1,157-277.4l110.1-214.2l-2-204c0-183.6-8.2-218.2-63.2-340.6c-114.2-244.7-250.9-379.3-361-350.8c-73.4,18.4-228.4,159.1-287.6,261.1c-81.6,140.7-136.7,385.5-122.4,542.5C3010.4-319,3118.5-60,3275.6,133.8l71.4,85.7l79.5-63.2C3471.4,121.5,3528.5,64.4,3555,27.7z M5927-484.2c173.4-83.6,271.3-144.8,348.8-220.3c57.1-57.1,106.1-116.3,106.1-130.5c0-30.6-181.5-169.3-305.9-230.5c-336.5-169.3-656.7-181.5-956.6-36.7c-167.2,79.5-308,246.8-308,361c0,108.1,310,322.3,532.3,369.2C5533.4-333.3,5666-357.7,5927-484.2z M2484.2-886c81.6-81.6,138.7-169.3,228.4-352.8c114.2-232.5,120.3-250.9,120.3-399.8c0-195.8-53-375.3-155-524.2c-102-146.9-195.8-210.1-275.3-187.6c-153,44.9-316.1,252.9-375.3,479.3c-85.7,332.4,6.1,693.4,259,1015.7c32.6,40.8,67.3,75.5,75.5,75.5C2370-779.9,2425.1-828.9,2484.2-886z M4970.4-1493.8c197.8-100,269.2-148.9,342.6-232.5l91.8-104l-77.5-67.3c-173.4-153-460.9-275.3-699.6-299.8c-157-14.3-401.8,40.8-542.5,122.4c-102,59.1-242.7,214.2-261.1,287.6c-26.5,106.1,106,246.8,330.4,350.8c155,69.4,228.4,83.6,412,77.5C4709.4-1365.3,4737.9-1375.5,4970.4-1493.8z M3942.5-2470.7c187.6-91.8,273.3-146.8,354.9-228.4c57.1-59.1,106.1-114.2,106.1-122.4c0-8.1-34.7-42.8-75.5-75.4c-322.2-252.9-683.3-344.7-1015.7-259c-226.4,59.1-434.4,222.3-479.3,375.3c-22.4,79.6,40.8,173.4,189.7,275.3c148.9,104,314.1,153,511.9,153C3691.7-2350.4,3703.9-2354.5,3942.5-2470.7z"/></g></g>
</svg>